<svg width="146" height="34" viewBox="0 0 146 34" fill="none" xmlns="http://www.w3.org/2000/svg">
<path d="M6.69922 24.5938L9.72266 25.0684V26H0.300781V25.0684L3.32422 24.5938V3.81641L0.300781 3.35938V2.42773H9.72266V3.35938L6.69922 3.81641V24.5938ZM16.7188 10.8125C17.5977 10.3086 18.5293 9.88672 19.5137 9.54688C20.498 9.20703 21.3652 9.03711 22.1152 9.03711C22.9238 9.03711 23.668 9.18945 24.3477 9.49414C25.0391 9.79883 25.5547 10.2852 25.8945 10.9531C26.7969 10.4492 27.8516 10.0039 29.0586 9.61719C30.2773 9.23047 31.2852 9.03711 32.082 9.03711C34.8945 9.03711 36.3008 10.6602 36.3008 13.9062V24.7695L38.4277 25.209V26H30.9219V25.209L33.3828 24.7695V14.2227C33.3828 12.207 32.4453 11.1992 30.5703 11.1992C30.2656 11.1992 29.9082 11.2227 29.498 11.2695C29.0996 11.3164 28.6953 11.3691 28.2852 11.4277C27.8867 11.4863 27.5 11.5566 27.125 11.6387C26.7617 11.709 26.457 11.7676 26.2109 11.8145C26.4102 12.4473 26.5098 13.1445 26.5098 13.9062V24.7695L28.9883 25.209V26H21.1484V25.209L23.5918 24.7695V14.2227C23.5918 13.25 23.3398 12.5059 22.8359 11.9902C22.3438 11.4629 21.5996 11.1992 20.6035 11.1992C19.5723 11.1992 18.2891 11.3691 16.7539 11.709V24.7695L19.2324 25.209V26H11.7441V25.209L13.8359 24.7695V10.707L11.7441 10.2676V9.47656H16.5781L16.7188 10.8125ZM47.1816 9.10742C48.9863 9.10742 50.3105 9.47656 51.1543 10.2148C52.0098 10.9531 52.4375 12.084 52.4375 13.6074V24.7695L54.4941 25.209V26H49.959L49.625 24.3477C48.2891 25.6836 46.584 26.3516 44.5098 26.3516C41.6855 26.3516 40.2734 24.7109 40.2734 21.4297C40.2734 20.3281 40.4844 19.4199 40.9062 18.7051C41.3398 17.9785 42.0254 17.4277 42.9629 17.0527C43.9004 16.666 45.2598 16.4551 47.041 16.4199L49.5195 16.3496V13.7656C49.5195 12.6289 49.3086 11.791 48.8867 11.252C48.4766 10.7129 47.8379 10.4434 46.9707 10.4434C45.7988 10.4434 44.7266 10.7188 43.7539 11.2695L43.1562 13.3262H42.1719V9.72266C44.0703 9.3125 45.7402 9.10742 47.1816 9.10742ZM49.5195 17.5801L47.2168 17.6504C45.6465 17.709 44.5801 18.0137 44.0176 18.5645C43.4668 19.1152 43.1914 20.0352 43.1914 21.3242C43.1914 23.3867 44.0293 24.418 45.7051 24.418C46.502 24.418 47.1875 24.3301 47.7617 24.1543C48.3477 23.9668 48.9336 23.7324 49.5195 23.4512V17.5801ZM70.2969 14.6973C70.2969 16.5957 69.7285 18.0312 68.5918 19.0039C67.4551 19.9766 65.8203 20.4629 63.6875 20.4629C62.7266 20.4629 61.8359 20.375 61.0156 20.1992L59.9082 22.502C59.9434 22.7012 60.1719 22.8887 60.5938 23.0645C61.0156 23.2402 61.543 23.3281 62.1758 23.3281H67.0625C68.8438 23.3281 70.1621 23.7148 71.0176 24.4883C71.8848 25.2617 72.3184 26.3281 72.3184 27.6875C72.3184 28.918 71.9727 29.9902 71.2812 30.9043C70.6016 31.8184 69.5996 32.5215 68.2754 33.0137C66.9512 33.5176 65.3457 33.7695 63.459 33.7695C61.209 33.7695 59.4922 33.4238 58.3086 32.7324C57.1367 32.041 56.5508 31.0566 56.5508 29.7793C56.5508 29.1582 56.7617 28.543 57.1836 27.9336C57.6055 27.3359 58.3789 26.6328 59.5039 25.8242C58.8359 25.6016 58.2734 25.2207 57.8164 24.6816C57.3594 24.1426 57.1309 23.5625 57.1309 22.9414L59.9082 19.8125C58.0566 18.9453 57.1309 17.2402 57.1309 14.6973C57.1309 12.8926 57.6992 11.498 58.8359 10.5137C59.9844 9.5293 61.6484 9.03711 63.8281 9.03711C64.2617 9.03711 64.8184 9.08398 65.498 9.17773C66.1777 9.25977 66.6992 9.35938 67.0625 9.47656L70.9473 7.52539L71.5625 8.28125L69.1191 10.8125C69.9043 11.6914 70.2969 12.9863 70.2969 14.6973ZM69.5762 28.2324C69.5762 27.5645 69.3711 27.043 68.9609 26.668C68.5508 26.293 67.9297 26.1055 67.0977 26.1055H60.6992C60.207 26.5273 59.8027 27.0605 59.4863 27.7051C59.1816 28.3613 59.0293 28.9707 59.0293 29.5332C59.0293 30.541 59.3926 31.2617 60.1191 31.6953C60.8457 32.1406 61.959 32.3633 63.459 32.3633C65.416 32.3633 66.9219 32 67.9766 31.2734C69.043 30.5469 69.5762 29.5332 69.5762 28.2324ZM63.7227 19.127C65 19.127 65.9023 18.7637 66.4297 18.0371C66.9688 17.2988 67.2383 16.1855 67.2383 14.6973C67.2383 13.1387 66.9629 12.0312 66.4121 11.375C65.8613 10.707 64.9766 10.373 63.7578 10.373C62.5273 10.373 61.625 10.707 61.0508 11.375C60.4766 12.043 60.1895 13.1504 60.1895 14.6973C60.1895 16.2441 60.4707 17.3691 61.0332 18.0723C61.5957 18.7754 62.4922 19.127 63.7227 19.127ZM77.5742 17.6855V18.002C77.5742 19.6191 77.75 20.8789 78.1016 21.7812C78.4648 22.6719 79.0156 23.3516 79.7539 23.8203C80.5039 24.2891 81.4824 24.5234 82.6895 24.5234C83.3223 24.5234 84.0723 24.4707 84.9395 24.3652C85.8066 24.2598 86.5215 24.1426 87.084 24.0137V24.998C86.5215 25.3613 85.7539 25.6777 84.7812 25.9473C83.8203 26.2168 82.8359 26.3516 81.8281 26.3516C79.2617 26.3516 77.3809 25.6602 76.1855 24.2773C75.002 22.8945 74.4102 20.6738 74.4102 17.6152C74.4102 14.7324 75.0137 12.582 76.2207 11.1641C77.4277 9.74609 79.1504 9.03711 81.3887 9.03711C85.6191 9.03711 87.7344 11.4395 87.7344 16.2441V17.6855H77.5742ZM81.3887 10.4434C80.1699 10.4434 79.2324 10.9355 78.5762 11.9199C77.9316 12.9043 77.6094 14.3574 77.6094 16.2793H84.6758C84.6758 14.1816 84.4062 12.6875 83.8672 11.7969C83.3281 10.8945 82.502 10.4434 81.3887 10.4434Z" fill="url(#paint0_linear)"/>
<path d="M95.6621 4.08008C95.6621 4.5957 95.4746 5.04102 95.0996 5.41602C94.7246 5.79102 94.2734 5.97852 93.7461 5.97852C93.2305 5.97852 92.7852 5.79102 92.4102 5.41602C92.0352 5.04102 91.8477 4.5957 91.8477 4.08008C91.8477 3.55273 92.0352 3.10156 92.4102 2.72656C92.7852 2.35156 93.2305 2.16406 93.7461 2.16406C94.2734 2.16406 94.7246 2.35156 95.0996 2.72656C95.4746 3.10156 95.6621 3.55273 95.6621 4.08008ZM95.4863 24.7695L98.3164 25.209V26H89.7559V25.209L92.5684 24.7695V10.707L90.2305 10.2676V9.47656H95.4863V24.7695ZM104.715 10.8125C105.617 10.2969 106.578 9.875 107.598 9.54688C108.617 9.20703 109.467 9.03711 110.146 9.03711C111.576 9.03711 112.654 9.45312 113.381 10.2852C114.107 11.1172 114.471 12.3242 114.471 13.9062V24.7695L116.475 25.209V26H109.355V25.209L111.553 24.7695V14.2227C111.553 13.25 111.312 12.4883 110.832 11.9375C110.363 11.375 109.631 11.0938 108.635 11.0938C107.58 11.0938 106.285 11.2637 104.75 11.6035V24.7695L106.982 25.209V26H99.8457V25.209L101.832 24.7695V10.707L99.8457 10.2676V9.47656H104.557L104.715 10.8125ZM120.975 10.9531H118.127V10.0918L120.975 9.40625V8.24609C120.975 5.80859 121.455 3.93359 122.416 2.62109C123.389 1.30859 124.748 0.652344 126.494 0.652344C127.396 0.652344 128.234 0.763672 129.008 0.986328V4.58984H128.146L127.355 2.42773C126.957 2.18164 126.477 2.05859 125.914 2.05859C125.176 2.05859 124.654 2.38672 124.35 3.04297C124.045 3.69922 123.893 4.92969 123.893 6.73438V9.47656H128.287V10.9531H123.893V24.6289L127.461 25.209V26H118.531V25.209L120.975 24.6289V10.9531ZM145.637 17.6504C145.637 23.4512 143.059 26.3516 137.902 26.3516C135.418 26.3516 133.543 25.6074 132.277 24.1191C131.012 22.6309 130.379 20.4746 130.379 17.6504C130.379 14.8613 131.012 12.7285 132.277 11.252C133.543 9.77539 135.465 9.03711 138.043 9.03711C140.551 9.03711 142.443 9.76367 143.721 11.2168C144.998 12.6582 145.637 14.8027 145.637 17.6504ZM142.473 17.6504C142.473 15.1191 142.104 13.2852 141.365 12.1484C140.627 11.0117 139.473 10.4434 137.902 10.4434C136.367 10.4434 135.254 10.9883 134.562 12.0781C133.883 13.168 133.543 15.0254 133.543 17.6504C133.543 20.3105 133.889 22.1973 134.58 23.3105C135.283 24.4121 136.391 24.9629 137.902 24.9629C139.449 24.9629 140.598 24.3887 141.348 23.2402C142.098 22.0918 142.473 20.2285 142.473 17.6504Z" fill="#BCBCBC"/>
<defs>
<linearGradient id="paint0_linear" x1="73.5" y1="-7" x2="73.5" y2="34" gradientUnits="userSpaceOnUse">
<stop offset="0.59375" stop-color="#4AA8FF"/>
<stop offset="1" stop-color="#CBA2FF"/>
</linearGradient>
</defs>
</svg>
